<mxfile host="app.diagrams.net" agent="Mozilla/5.0 (Windows NT 10.0; Win64; x64) AppleWebKit/537.36 (KHTML, like Gecko) Chrome/135.0.0.0 Safari/537.36" version="26.3.0">
  <diagram name="Pipeline" id="-cjdjqOwMIIj4uQCHcoN">
    <mxGraphModel dx="1185" dy="597" grid="1" gridSize="10" guides="1" tooltips="1" connect="1" arrows="1" fold="1" page="1" pageScale="1" pageWidth="850" pageHeight="1100" math="0" shadow="0">
      <root>
        <mxCell id="0" />
        <mxCell id="1" parent="0" />
        <mxCell id="neIDlOKUB1c6L7lZOh8Q-3" value="" style="edgeStyle=orthogonalEdgeStyle;rounded=0;orthogonalLoop=1;jettySize=auto;html=1;" edge="1" parent="1" source="neIDlOKUB1c6L7lZOh8Q-1" target="neIDlOKUB1c6L7lZOh8Q-2">
          <mxGeometry relative="1" as="geometry" />
        </mxCell>
        <mxCell id="neIDlOKUB1c6L7lZOh8Q-1" value="Preprocessing" style="rounded=1;whiteSpace=wrap;html=1;" vertex="1" parent="1">
          <mxGeometry x="50" y="390" width="120" height="60" as="geometry" />
        </mxCell>
        <mxCell id="neIDlOKUB1c6L7lZOh8Q-5" value="" style="edgeStyle=orthogonalEdgeStyle;rounded=0;orthogonalLoop=1;jettySize=auto;html=1;" edge="1" parent="1" source="neIDlOKUB1c6L7lZOh8Q-2" target="neIDlOKUB1c6L7lZOh8Q-4">
          <mxGeometry relative="1" as="geometry" />
        </mxCell>
        <mxCell id="neIDlOKUB1c6L7lZOh8Q-2" value="Statistical Analysis" style="rounded=1;whiteSpace=wrap;html=1;" vertex="1" parent="1">
          <mxGeometry x="250" y="390" width="120" height="60" as="geometry" />
        </mxCell>
        <mxCell id="neIDlOKUB1c6L7lZOh8Q-4" value="Validation" style="whiteSpace=wrap;html=1;rounded=1;" vertex="1" parent="1">
          <mxGeometry x="450" y="390" width="120" height="60" as="geometry" />
        </mxCell>
      </root>
    </mxGraphModel>
  </diagram>
</mxfile>
